<?xml version="1.0" encoding="UTF-8" standalone="no"?>
<!DOCTYPE svg PUBLIC "-//W3C//DTD SVG 1.1//EN" "http://www.w3.org/Graphics/SVG/1.1/DTD/svg11.dtd">
<svg width="100%" height="100%" viewBox="0 0 4950 1325" version="1.1" xmlns="http://www.w3.org/2000/svg" xmlns:xlink="http://www.w3.org/1999/xlink" xml:space="preserve" xmlns:serif="http://www.serif.com/" style="fill-rule:evenodd;clip-rule:evenodd;stroke-linejoin:round;stroke-miterlimit:2;">
    <g transform="matrix(4.16667,0,0,4.16667,0,0)">
        <path d="M212.164,217.095C212.164,217.095 209.994,227.324 207.979,234.3L185.039,316.139L176.669,316.139L148.149,207.639L155.124,207.639L178.065,295.99C179.459,301.259 180.7,307.615 180.7,307.615L181.01,307.615C181.164,307.615 182.405,301.414 183.954,295.99L208.754,207.639L216.194,207.639L240.994,295.99C242.544,301.414 243.784,307.615 243.939,307.615L244.249,307.615C244.249,307.615 245.49,301.259 246.884,295.99L270.599,207.639L277.575,207.639L248.279,316.139L239.91,316.139L216.969,234.3C214.954,227.324 212.785,217.095 212.785,217.095L212.475,217.095L212.164,217.095Z" style="fill:white;fill-rule:nonzero;"/>
        <path d="M300.663,207.639L360.029,207.639L360.029,213.84L307.328,213.84L307.328,258.325L350.574,258.325L350.574,264.524L307.328,264.524L307.328,309.94L362.974,309.94L362.974,316.139L300.663,316.139L300.663,207.639Z" style="fill:white;fill-rule:nonzero;"/>
        <path d="M426.519,309.94C441.089,309.94 450.389,300.949 450.389,286.224C450.389,271.501 440.315,262.2 426.365,262.2L395.829,262.2L395.829,309.94L426.519,309.94ZM425.434,256C437.524,256 446.05,247.629 446.05,234.765C446.05,222.054 437.99,213.84 425.279,213.84L395.829,213.84L395.829,256L425.434,256ZM389.164,207.639L425.59,207.639C441.4,207.639 453.025,218.179 453.025,234.765C453.025,246.546 447.29,254.449 438.919,258.48L438.919,258.791C449.615,261.734 457.364,272.274 457.364,286.224C457.364,304.359 444.499,316.139 427.139,316.139L389.164,316.139L389.164,207.639Z" style="fill:white;fill-rule:nonzero;"/>
        <path d="M524.471,299.4C524.471,299.4 535.477,311.49 553.457,311.49C566.942,311.49 577.636,303.119 577.636,290.1C577.636,259.256 522.146,267.78 522.146,233.835C522.146,219.42 535.011,205.779 554.697,205.779C572.366,205.779 582.286,215.855 582.286,215.855L578.567,221.59C578.567,221.59 569.267,212.29 554.851,212.29C538.732,212.29 529.121,223.139 529.121,233.679C529.121,262.355 584.611,253.519 584.611,289.789C584.611,305.444 572.521,318 553.146,318C531.757,318 519.976,304.514 519.976,304.514L524.471,299.4Z" style="fill:white;fill-rule:nonzero;"/>
        <path d="M610.183,207.639L669.549,207.639L669.549,213.84L616.848,213.84L616.848,258.325L660.093,258.325L660.093,264.524L616.848,264.524L616.848,309.94L672.494,309.94L672.494,316.139L610.183,316.139L610.183,207.639Z" style="fill:white;fill-rule:nonzero;"/>
        <path d="M734.8,261.889C749.061,261.889 758.051,251.66 758.051,236.935C758.051,227.324 753.246,219.576 745.34,216.009C742.242,214.615 738.831,213.84 730.151,213.84L705.351,213.84L705.351,261.889L734.8,261.889ZM698.686,207.639L730.461,207.639C740.536,207.639 745.651,208.724 749.991,210.894C758.981,215.39 765.027,224.535 765.027,236.935C765.027,252.434 756.036,264.059 743.327,266.85L743.327,267.16C743.327,267.16 744.411,268.4 745.807,271.036L770.141,316.139L762.236,316.139L736.505,268.091L705.351,268.091L705.351,316.139L698.686,316.139L698.686,207.639Z" style="fill:white;fill-rule:nonzero;"/>
        <path d="M780.829,207.639L787.959,207.639L820.664,295.37C822.525,300.485 824.85,308.389 824.85,308.389L825.161,308.389C825.161,308.389 827.486,300.485 829.344,295.37L862.204,207.639L869.335,207.639L828.724,316.139L821.44,316.139L780.829,207.639Z" style="fill:white;fill-rule:nonzero;"/>
        <rect x="888.705" y="207.639" width="6.666" height="108.5" style="fill:white;fill-rule:nonzero;"/>
        <path d="M975.348,205.779C1001.08,205.779 1014.1,219.42 1014.1,219.42L1010.07,224.38C1010.07,224.38 997.203,212.135 975.502,212.135C948.842,212.135 928.537,233.06 928.537,261.114C928.537,289.325 948.687,311.645 975.968,311.645C999.218,311.645 1012.7,296.92 1012.7,296.92L1016.89,301.569C1016.89,301.569 1002.32,318 975.968,318C944.348,318 921.563,292.579 921.563,261.114C921.563,229.649 944.813,205.779 975.348,205.779Z" style="fill:white;fill-rule:nonzero;"/>
        <path d="M1042.61,207.639L1101.98,207.639L1101.98,213.84L1049.28,213.84L1049.28,258.325L1092.52,258.325L1092.52,264.524L1049.28,264.524L1049.28,309.94L1104.92,309.94L1104.92,316.139L1042.61,316.139L1042.61,207.639Z" style="fill:white;fill-rule:nonzero;"/>
        <path d="M1127.55,299.4C1127.55,299.4 1138.56,311.49 1156.53,311.49C1170.02,311.49 1180.71,303.119 1180.71,290.1C1180.71,259.256 1125.22,267.78 1125.22,233.835C1125.22,219.42 1138.09,205.779 1157.77,205.779C1175.44,205.779 1185.36,215.855 1185.36,215.855L1181.64,221.59C1181.64,221.59 1172.35,212.29 1157.93,212.29C1141.81,212.29 1132.2,223.139 1132.2,233.679C1132.2,262.355 1187.69,253.519 1187.69,289.789C1187.69,305.444 1175.6,318 1156.22,318C1134.83,318 1123.05,304.514 1123.05,304.514L1127.55,299.4Z" style="fill:white;fill-rule:nonzero;"/>
        <g>
            <path d="M260.351,170.492L229.78,170.492L177.561,86.05L177.561,170.492L148.477,170.492L148.477,47.464L186.402,47.464L231.267,117.942L231.267,47.464L260.351,47.464L260.351,170.492Z" style="fill:white;fill-rule:nonzero;"/>
            <path d="M380.904,170.492L291.918,170.492L291.918,47.464L380.904,47.464L380.904,71.26L323.481,71.26L323.481,92.494L376.773,92.494L376.773,116.29L323.481,116.29L323.481,146.696L380.904,146.696L380.904,170.492Z" style="fill:white;fill-rule:nonzero;"/>
            <path d="M503.805,71.26L465.384,71.26L465.384,170.492L433.655,170.492L433.655,71.26L395.235,71.26L395.235,47.464L503.805,47.464L503.805,71.26Z" style="fill:white;fill-rule:nonzero;"/>
            <path d="M682.841,48.282L624.52,169.753L605.83,169.753L602.241,69.166L555.106,169.753L537.141,169.753L532.166,48.282L548.576,48.282L551.811,149.113L599.374,48.282L615.781,48.282L619.089,150.163L667.005,48.282L682.841,48.282Z" style="fill:white;fill-rule:nonzero;"/>
            <path d="M755.389,122.355L747.684,62.57L712.489,122.355L755.389,122.355ZM777.574,169.753L761.198,169.753L757.074,135.653L704.767,135.653L684.855,169.753L667.768,169.753L740.048,48.282L761.42,48.282L777.574,169.753Z" style="fill:white;fill-rule:nonzero;"/>
            <path d="M908.933,48.282L850.781,116.482L838.461,169.753L822.134,169.753L834.061,118.195L806.96,48.282L824.284,48.282L845.35,102.863L891.245,48.282L908.933,48.282Z" style="fill:white;fill-rule:nonzero;"/>
            <path d="M940.932,171.955C933.046,171.955 925.541,171.125 918.417,169.468C911.291,167.808 904.304,165.265 897.452,161.839L901.367,143.321L902.509,143.321C907.731,148.27 914.134,152.064 921.721,154.701C929.307,157.34 936.635,158.657 943.706,158.657C955.291,158.657 964.168,156.361 970.342,151.764C976.513,147.169 979.601,141.309 979.601,134.184C979.601,130.431 978.5,127.304 976.297,124.803C974.094,122.302 970.871,120.452 966.629,119.256C963.094,118.276 958.892,117.338 954.027,116.441C949.158,115.543 944.522,114.578 940.118,113.545C931.578,111.641 924.97,108.378 920.292,103.755C915.616,99.134 913.277,93.395 913.277,86.543C913.277,74.958 918.185,65.32 928.002,57.623C937.818,49.927 950.503,46.08 966.059,46.08C974.542,46.08 982.252,46.965 989.186,48.731C996.12,50.499 1002.09,52.579 1007.09,54.972L1003.42,72.348L1002.28,72.348C998.416,68.813 992.911,65.768 985.76,63.211C978.609,60.655 971.089,59.377 963.204,59.377C953.304,59.377 945.406,61.552 939.505,65.903C933.603,70.255 930.653,75.774 930.653,82.464C930.653,86.053 931.714,89.208 933.835,91.926C935.956,94.647 939.736,96.687 945.175,98.045C948.654,98.861 953.279,99.854 959.043,101.022C964.807,102.192 969.648,103.294 973.563,104.326C981.286,106.448 987.147,109.602 991.145,113.789C995.141,117.978 997.14,123.253 997.14,129.616C997.14,134.947 995.835,140.249 993.224,145.523C990.614,150.8 986.97,155.313 982.293,159.066C977.288,163.092 971.428,166.245 964.713,168.529C957.995,170.813 950.069,171.955 940.932,171.955Z" style="fill:white;fill-rule:nonzero;"/>
        </g>
        <rect x="0" y="48.341" width="124.233" height="122.087" style="fill:white;fill-rule:nonzero;"/>
        <path d="M1036.71,108.307L1036.71,170.424L1090.26,138.294L1141.66,108.307L1090.26,78.322L1036.71,48.336L1036.71,108.307Z" style="fill:white;fill-rule:nonzero;"/>
        <path d="M1123.7,24.717C1123.7,24.064 1123.57,23.484 1123.32,22.976C1123.06,22.469 1122.64,22.052 1122.04,21.726C1121.48,21.418 1120.88,21.218 1120.24,21.127C1119.61,21.037 1118.81,20.991 1117.85,20.991L1113.8,20.991L1113.8,29.394L1117.25,29.394C1118.38,29.394 1119.35,29.308 1120.16,29.135C1120.98,28.964 1121.65,28.669 1122.17,28.252C1122.74,27.799 1123.13,27.3 1123.36,26.756C1123.58,26.213 1123.7,25.532 1123.7,24.717ZM1133.27,42.474L1127.21,42.474L1118.2,32.82L1113.8,32.82L1113.8,42.474L1109.31,42.474L1109.31,17.593L1117.8,17.593C1119.5,17.593 1120.91,17.665 1122.01,17.81C1123.12,17.955 1124.2,18.309 1125.27,18.87C1126.42,19.487 1127.26,20.235 1127.79,21.114C1128.32,21.993 1128.59,23.094 1128.59,24.418C1128.59,26.176 1128.08,27.64 1127.06,28.809C1126.03,29.979 1124.62,30.908 1122.83,31.596L1133.27,42.474ZM1138.49,30.509C1138.49,24.889 1136.5,20.067 1132.52,16.042C1128.54,12.018 1123.74,10.006 1118.12,10.006C1112.5,10.006 1107.7,12.018 1103.72,16.042C1099.75,20.067 1097.76,24.889 1097.76,30.509C1097.76,36.129 1099.75,40.951 1103.72,44.975C1107.7,49 1112.5,51.012 1118.12,51.012C1123.74,51.012 1128.54,49 1132.52,44.975C1136.5,40.951 1138.49,36.129 1138.49,30.509ZM1141.64,30.509C1141.64,36.999 1139.35,42.542 1134.75,47.137C1130.16,51.733 1124.61,54.03 1118.12,54.03C1111.63,54.03 1106.09,51.733 1101.49,47.137C1096.9,42.542 1094.6,36.999 1094.6,30.509C1094.6,24.019 1096.9,18.476 1101.49,13.881C1106.09,9.285 1111.63,6.987 1118.12,6.987C1124.61,6.987 1130.16,9.285 1134.75,13.881C1139.35,18.476 1141.64,24.019 1141.64,30.509Z" style="fill:white;fill-rule:nonzero;"/>
    </g>
</svg>
